<svg width="64" height="24" viewBox="0 0 64 24" fill="none" xmlns="http://www.w3.org/2000/svg">
<g clip-path="url(#clip0_1161_72)">
<path d="M55.8001 9.56196C59.0631 12.9187 62.7646 16.9844 68.7142 15.6176L68.4896 14.643C63.1754 15.8637 59.8752 12.3195 56.5169 8.8647C54.8753 7.1759 53.2025 5.4979 51.2982 4.63618C49.3372 3.7489 47.1674 3.73932 44.6009 5.26314C42.0447 6.78087 40.9467 8.66384 40.5921 10.6547C40.2459 12.599 40.6188 14.6192 40.8997 16.3706C41.0428 17.2624 41.1628 18.0829 41.178 18.8305C41.1933 19.5764 41.1021 20.211 40.8509 20.7407C40.3712 21.7518 39.1943 22.5911 36.2874 22.852C33.6041 23.0928 31.6065 23.0293 30.138 22.7377C28.6719 22.4466 27.77 21.9363 27.2249 21.3139C26.683 20.695 26.44 19.9039 26.4124 18.9409C26.3846 17.9697 26.5772 16.8589 26.8743 15.644C27.1735 14.4208 27.5588 13.1637 27.9144 11.8432C28.2648 10.5419 28.5769 9.20968 28.6966 7.92427C28.8163 6.63849 28.7467 5.37107 28.3128 4.20747C27.8751 3.03384 27.0777 1.99686 25.7972 1.1645C24.7443 0.480169 23.7031 0.447019 22.7044 0.907666C21.7512 1.3474 20.8624 2.22402 20.0032 3.29146C19.1373 4.36729 18.2569 5.69512 17.3401 7.09419C16.4186 8.50057 15.455 9.98557 14.4075 11.4086C12.3041 14.2663 9.91964 16.7874 6.99445 17.852C4.11361 18.9005 0.597976 18.5731 -3.87274 15.4809L-4.4411 16.3032C0.220756 19.5275 4.07402 19.9796 7.33624 18.7924C10.5542 17.6212 13.087 14.89 15.2132 12.0014C16.2804 10.5516 17.2606 9.04077 18.1771 7.64204C19.0984 6.23596 19.9515 4.94969 20.7816 3.91841C21.6183 2.87881 22.3883 2.15495 23.1234 1.81587C23.8129 1.49782 24.49 1.50706 25.2523 2.00239C26.3605 2.72274 27.0165 3.59158 27.3763 4.5561C27.7396 5.53043 27.812 6.63404 27.7005 7.83149C27.5889 9.02968 27.2953 10.2949 26.9485 11.5825C26.607 12.8507 26.2037 14.1759 25.9026 15.4067C25.5996 16.6457 25.3807 17.8613 25.4124 18.9692C25.4444 20.0853 25.7319 21.1268 26.472 21.9721C27.209 22.8138 28.3417 23.4002 29.9427 23.7182C31.5416 24.0357 33.6452 24.0933 36.3773 23.8481C39.4065 23.5762 41.0457 22.665 41.7552 21.1694C42.0983 20.4458 42.1949 19.6378 42.178 18.81C42.1612 17.9839 42.0293 17.0994 41.887 16.2124C41.5972 14.4057 41.2663 12.5726 41.5765 10.8305C41.8784 9.13507 42.7971 7.49777 45.1116 6.12349C47.4159 4.75537 49.2415 4.80318 50.886 5.54732C52.5873 6.31716 54.1311 7.84495 55.8001 9.56196Z" fill="#00B5A9" stroke="black" stroke-width="0.25"/>
<path d="M59.657 17.3287C60.961 15.5284 59.5122 12.0817 58.2435 11.3506C58.2435 11.3506 58.2055 12.6421 57.8885 13.3828C57.5581 14.1547 56.2609 14.3293 56.5945 15.0999C56.8271 15.6372 57.6739 15.2937 57.9024 15.8328C58.2318 16.6102 56.5967 16.6689 56.5396 17.5113C56.4722 18.5047 58.1417 19.4946 58.1417 19.4946C58.1417 19.4946 58.353 19.129 59.657 17.3287Z" fill="#00B5A9" stroke="black" stroke-width="0.25"/>
<path d="M53.1004 14.8145C55.2552 14.2683 56.3522 10.694 55.8469 9.31964C55.8469 9.31964 54.99 10.2867 54.2719 10.6521C53.5236 11.0329 52.416 10.3355 52.1781 11.1407C52.0123 11.7022 52.8824 11.9814 52.7123 12.5416C52.4669 13.3495 51.1742 12.3465 50.5904 12.9566C49.902 13.6759 50.549 15.5058 50.549 15.5058C50.549 15.5058 50.9455 15.3606 53.1004 14.8145Z" fill="#00B5A9" stroke="black" stroke-width="0.25"/>
<path d="M38.8088 3.82484C40.9637 4.37096 42.0607 7.94531 41.5554 9.31965C41.5554 9.31965 40.6984 8.35258 39.9804 7.98721C39.232 7.60643 38.1244 8.30383 37.8866 7.49857C37.7207 6.93706 38.5909 6.65793 38.4207 6.09771C38.1753 5.28982 36.8826 6.29274 36.2988 5.68274C35.6104 4.96341 36.2575 3.13351 36.2575 3.13351C36.2575 3.13351 36.654 3.27871 38.8088 3.82484Z" fill="#00B5A9" stroke="black" stroke-width="0.25"/>
<path d="M35.7408 16.3302C37.8379 17.0677 40.7295 14.6974 41.0691 13.2731C41.0691 13.2731 39.8201 13.6044 39.0199 13.5114C38.1858 13.4145 37.6491 12.2207 37.0054 12.7599C36.5566 13.1358 37.1269 13.8498 36.6752 14.2223C36.0238 14.7594 35.502 13.2087 34.6782 13.3938C33.7067 13.6121 33.2331 15.4943 33.2331 15.4943C33.2331 15.4943 33.6437 15.5928 35.7408 16.3302Z" fill="#00B5A9" stroke="black" stroke-width="0.25"/>
<path d="M22.074 14.9394C24.2954 15.0242 26.1135 18.2913 25.9059 19.7408C25.9059 19.7408 24.8662 18.9736 24.0877 18.766C23.2764 18.5496 22.3386 19.4627 21.938 18.7247C21.6588 18.2101 22.4516 17.7557 22.1684 17.2432C21.7599 16.5043 20.7047 17.7547 20.0066 17.2798C19.1833 16.7198 19.4346 14.7952 19.4346 14.7952C19.4346 14.7952 19.8527 14.8546 22.074 14.9394Z" fill="#00B5A9" stroke="black" stroke-width="0.25"/>
<path d="M8.89361 9.43226C11.115 9.51709 12.9331 12.7842 12.7255 14.2336C12.7255 14.2336 11.6857 13.4665 10.9073 13.2589C10.096 13.0425 9.15814 13.9555 8.75763 13.2175C8.47836 12.703 9.27119 12.2485 8.98795 11.7361C8.57949 10.9971 7.52433 12.2475 6.82618 11.7727C6.0029 11.2127 6.25419 9.28809 6.25419 9.28809C6.25419 9.28809 6.67227 9.34743 8.89361 9.43226Z" fill="#00B5A9" stroke="black" stroke-width="0.25"/>
<path d="M6.67428 12.6756C8.56457 11.5058 11.897 13.2012 12.534 14.5197C12.534 14.5197 11.243 14.4637 10.4813 14.7261C9.6874 14.9995 9.41904 16.2806 8.67476 15.8919C8.15577 15.6209 8.55983 14.8013 8.03876 14.5343C7.28732 14.1492 7.11001 15.7757 6.26567 15.7715C5.27002 15.7666 4.40401 14.0295 4.40401 14.0295C4.40401 14.0295 4.78399 13.8454 6.67428 12.6756Z" fill="#00B5A9" stroke="black" stroke-width="0.25"/>
<path d="M23.9465 9.44111C26.1678 9.35628 27.986 6.08921 27.7783 4.63973C27.7783 4.63973 26.7386 5.40686 25.9601 5.61449C25.1488 5.83087 24.211 4.91785 23.8105 5.65582C23.5312 6.17041 24.324 6.62484 24.0408 7.13726C23.6323 7.87623 22.5772 6.62582 21.879 7.1007C21.0557 7.66067 21.307 9.58527 21.307 9.58527C21.307 9.58527 21.7251 9.52594 23.9465 9.44111Z" fill="#00B5A9" stroke="black" stroke-width="0.25"/>
</g>
<defs>
<clipPath id="clip0_1161_72">
<rect width="64" height="24" fill="white"/>
</clipPath>
</defs>
</svg>
